{
  "asset": {
    "version": "2.0",
    "generator": "GLTFExporter"
  },
  "scenes": [
    {
      "name": "Scene",
      "nodes": [
        2
      ]
    }
  ],
  "scene": 0,
  "nodes": [
    {
      "name": "lopatky_Circle.003",
      "mesh": 0
    },
    {
      "name": "mlyn_Circle",
      "mesh": 1
    },
    {
      "name": "windmill.obj",
      "children": [
        0,
        1
      ]
    }
  ],
  "bufferViews": [
    {
      "buffer": 0,
      "byteOffset": 0,
      "byteLength": 13536,
      "target": 34962,
      "byteStride": 12
    },
    {
      "buffer": 0,
      "byteOffset": 13536,
      "byteLength": 13536,
      "target": 34962,
      "byteStride": 12
    },
    {
      "buffer": 0,
      "byteOffset": 27072,
      "byteLength": 9024,
      "target": 34962,
      "byteStride": 8
    },
    {
      "buffer": 0,
      "byteOffset": 36096,
      "byteLength": 84456,
      "target": 34962,
      "byteStride": 12
    },
    {
      "buffer": 0,
      "byteOffset": 120552,
      "byteLength": 84456,
      "target": 34962,
      "byteStride": 12
    },
    {
      "buffer": 0,
      "byteOffset": 205008,
      "byteLength": 56304,
      "target": 34962,
      "byteStride": 8
    }
  ],
  "buffers": [
    {
      "byteLength": 261312,
      "uri": "data:application/octet-stream;base64,"
    }
  ],
  "accessors": [
    {
      "bufferView": 0,
      "componentType": 5126,
      "count": 1128,
      "max": [
        2.4702839851379395,
        10.647818565368652,
        4.145518779754639
      ],
      "min": [
        1.3091830015182495,
        2.372230052947998,
        -4.130195140838623
      ],
      "type": "VEC3"
    },
    {
      "bufferView": 1,
      "componentType": 5126,
      "count": 1128,
      "max": [
        0.9998999834060669,
        0.988099992275238,
        0.988099992275238
      ],
      "min": [
        -0.9998999834060669,
        -0.988099992275238,
        -0.988099992275238
      ],
      "type": "VEC3"
    },
    {
      "bufferView": 2,
      "componentType": 5126,
      "count": 1128,
      "max": [
        0.9946029782295227,
        0.9890739917755127
      ],
      "min": [
        0.0071470001712441444,
        0.020413000136613846
      ],
      "type": "VEC2"
    },
    {
      "bufferView": 3,
      "componentType": 5126,
      "count": 7038,
      "max": [
        1.9384490251541138,
        8.89444637298584,
        2.6083478927612305
      ],
      "min": [
        -2.747654914855957,
        -0.6545040011405945,
        -1.9384490251541138
      ],
      "type": "VEC3"
    },
    {
      "bufferView": 4,
      "componentType": 5126,
      "count": 7038,
      "max": [
        1,
        1,
        1
      ],
      "min": [
        -1,
        -1,
        -1
      ],
      "type": "VEC3"
    },
    {
      "bufferView": 5,
      "componentType": 5126,
      "count": 7038,
      "max": [
        0.9866859912872314,
        0.9964860081672668
      ],
      "min": [
        0.0025869999080896378,
        0.005741000175476074
      ],
      "type": "VEC2"
    }
  ],
  "materials": [
    {
      "pbrMetallicRoughness": {
        "metallicFactor": 0.5,
        "roughnessFactor": 0.5
      },
      "name": "Material"
    },
    {
      "pbrMetallicRoughness": {
        "metallicFactor": 0.5,
        "roughnessFactor": 0.5
      },
      "name": "windmill"
    }
  ],
  "meshes": [
    {
      "primitives": [
        {
          "mode": 4,
          "attributes": {
            "POSITION": 0,
            "NORMAL": 1,
            "TEXCOORD_0": 2
          },
          "material": 0
        }
      ]
    },
    {
      "primitives": [
        {
          "mode": 4,
          "attributes": {
            "POSITION": 3,
            "NORMAL": 4,
            "TEXCOORD_0": 5
          },
          "material": 1
        }
      ]
    }
  ]
}